<?xml version="1.0" encoding="utf-8"?>
<!-- Generator: Adobe Illustrator 21.0.0, SVG Export Plug-In . SVG Version: 6.00 Build 0)  -->
<svg version="1.1" id="图层_1" xmlns="http://www.w3.org/2000/svg" xmlns:xlink="http://www.w3.org/1999/xlink" x="0px" y="0px"
	 viewBox="0 0 107 61" style="enable-background:new 0 0 107 61;" xml:space="preserve">
<style type="text/css">
	.st0{fill:#FFF1F0;stroke:#FF4D4F;stroke-miterlimit:10;}
	.st1{font-family:'FZLTXHK--GBK1-0';}
	.st2{font-size:16px;}
	.st3{fill:#FF4D4F;}
</style>
<title>task_1</title>
<g id="图层_1-2">
	<path class="st0" d="M8.9,0.5h89.2c4.6,0,8.4,3.8,8.4,8.4v43.2c0,4.6-3.8,8.4-8.4,8.4H8.9c-4.6,0-8.4-3.8-8.4-8.4V8.9
		C0.5,4.3,4.3,0.5,8.9,0.5z"/>
	<text transform="matrix(1.02 0 0 1 21.5996 37.4302)" class="st1 st2">Java节点</text>
	<path class="st3" d="M14.3,17.1l-0.5-1.5h0l-0.5,1.5H14.3z M20.8,17.1l-0.5-1.5h0l-0.5,1.5H20.8z"/>
	<path class="st3" d="M24.6,12.7h-1.4V9.1l-4.3-4.4H9.3c-0.6,0-1.1,0.5-1.1,1.1l0,0v6.9H6.9c-0.2,0-0.4,0.2-0.4,0.4c0,0,0,0,0,0v7.3
		c0,0.2,0.2,0.4,0.4,0.4h1.3V22c0,0.6,0.5,1.1,1.1,1.1l0,0h12.8c0.6,0,1.1-0.5,1.1-1.1l0,0v-1.3h1.4c0.2,0,0.4-0.2,0.4-0.4v-7.3
		C24.9,12.9,24.8,12.7,24.6,12.7z M9.5,6h8.8v3.6h3.6v3.2H9.5V6z M21.8,18.5h-0.6L21,17.6h-1.4l-0.3,0.9h-0.6L20,15h0.6L21.8,18.5z
		 M18.5,15l-1.2,3.5h-0.7L15.5,15h0.6l0.9,2.9h0l0.9-2.9H18.5z M15.3,18.5h-0.6l-0.3-0.9h-1.4l-0.3,0.9h-0.6l1.3-3.5h0.6L15.3,18.5z
		 M10.6,18c0.2,0,0.3-0.1,0.4-0.2c0.1-0.2,0.1-0.4,0.1-0.6V15h0.6v2.4c0,0.3-0.1,0.6-0.2,0.9c-0.2,0.2-0.5,0.3-0.8,0.3
		c-0.3,0-0.6-0.1-0.8-0.3c-0.2-0.2-0.3-0.5-0.3-0.8v-0.1h0.6v0.1C10.1,17.8,10.3,18,10.6,18z M21.9,21.8H9.5v-1.1h12.4V21.8z"/>
</g>
</svg>
