<?xml version="1.0" encoding="utf-8"?>
<!-- Generator: Adobe Illustrator 21.0.0, SVG Export Plug-In . SVG Version: 6.00 Build 0)  -->
<svg version="1.1" id="图层_1" xmlns="http://www.w3.org/2000/svg" xmlns:xlink="http://www.w3.org/1999/xlink" x="0px" y="0px"
	 viewBox="0 0 107 61" style="enable-background:new 0 0 107 61;" xml:space="preserve">
<style type="text/css">
	.st0{fill:#F6FFED;stroke:#73D13D;stroke-miterlimit:10;}
	.st1{font-family:'FZLTXHK--GBK1-0';}
	.st2{font-size:16px;}
	.st3{fill:#73D13D;}
</style>
<title>task_1</title>
<g id="图层_1-2">
	<path class="st0" d="M8.9,0.5h89.2c4.6,0,8.4,3.8,8.4,8.4v43.2c0,4.6-3.8,8.4-8.4,8.4H8.9c-4.6,0-8.4-3.8-8.4-8.4V8.9
		C0.5,4.3,4.3,0.5,8.9,0.5z"/>
	<text transform="matrix(1.02 0 0 1 21.5996 37.4302)" class="st1 st2">邮件节点</text>
	<path class="st3" d="M21.6,7.1H7.9C7,7.1,6.3,7.8,6.3,8.7v9.5c0,0.9,0.7,1.6,1.6,1.6h13.7c0.9,0,1.6-0.7,1.6-1.6V8.7
		C23.2,7.8,22.5,7.1,21.6,7.1z M21,10.1l-5.1,4.7c-0.6,0.6-1.5,0.6-2.2,0l-5.1-4.7c-0.2-0.2-0.2-0.5,0-0.8c0.2-0.2,0.5-0.2,0.8,0
		l5.1,4.7c0.2,0.2,0.5,0.2,0.7,0l5.1-4.7c0.2-0.2,0.6-0.2,0.8,0C21.2,9.6,21.2,9.9,21,10.1z"/>
</g>
</svg>
