<?xml version="1.0" encoding="utf-8"?>
<!-- Generator: Adobe Illustrator 21.0.0, SVG Export Plug-In . SVG Version: 6.00 Build 0)  -->
<svg version="1.1" id="图层_1" xmlns="http://www.w3.org/2000/svg" xmlns:xlink="http://www.w3.org/1999/xlink" x="0px" y="0px"
	 viewBox="0 0 68 68" style="enable-background:new 0 0 68 68;" xml:space="preserve">
<style type="text/css">
	.st0{fill:#FCF1E8;}
	.st1{fill:#F9AA68;}
	.st2{font-family:'FZLTXHK--GBK1-0';}
	.st3{font-size:14px;}
	.st4{fill:#FA8C16;}
</style>
<title>start_1</title>
<g id="图层_2">
	<g id="图层_1-2">
		<path class="st0" d="M34,67.5c-18.5,0-33.5-15-33.5-33.5S15.5,0.5,34,0.5s33.5,15,33.5,33.5C67.5,52.5,52.5,67.5,34,67.5z"/>
		<path class="st1" d="M34,1c18.2,0,33,14.8,33,33S52.2,67,34,67S1,52.2,1,34S15.8,1,34,1 M34,0C15.2,0,0,15.2,0,34s15.2,34,34,34
			s34-15.2,34-34S52.8,0,34,0z"/>
		<text transform="matrix(1 0 0 1 6.97 39.9299)" class="st2 st3">消息启动</text>
	</g>
</g>
<path class="st4" d="M28.8,14.9h9.8c0.4,0,0.7,0.3,0.7,0.7c0,0.4-0.3,0.7-0.7,0.7h-9.8c-0.4,0-0.7-0.3-0.7-0.7S28.4,14.9,28.8,14.9z
	 M28.8,10.7h9.8c0.4,0,0.7,0.3,0.7,0.7s-0.3,0.7-0.7,0.7h-9.8c-0.4,0-0.7-0.3-0.7-0.7S28.4,10.7,28.8,10.7z M29.1,23.3l4.1-3.2
	c0.2-0.2,0.5-0.3,0.9-0.3h7.7c0.4,0,0.7-0.3,0.7-0.7V7.9c0-0.4-0.3-0.7-0.7-0.7H25.6c-0.4,0-0.7,0.3-0.7,0.7v11.2
	c0,0.4,0.3,0.7,0.7,0.7h2.1c0.8,0,1.4,0.6,1.4,1.4L29.1,23.3L29.1,23.3z M34,21.2l-4.6,3.6c-0.5,0.4-1.1,0.3-1.5-0.2
	c-0.1-0.2-0.2-0.4-0.2-0.6v-2.8h-2.1c-1.2,0-2.1-0.9-2.1-2.1V7.9c0-1.2,0.9-2.1,2.1-2.1h16.1c1.2,0,2.1,0.9,2.1,2.1v11.2
	c0,1.2-0.9,2.1-2.1,2.1C41.8,21.2,34,21.2,34,21.2z"/>
</svg>
