<?xml version="1.0" encoding="utf-8"?>
<!-- Generator: Adobe Illustrator 21.0.0, SVG Export Plug-In . SVG Version: 6.00 Build 0)  -->
<svg version="1.1" id="图层_1" xmlns="http://www.w3.org/2000/svg" xmlns:xlink="http://www.w3.org/1999/xlink" x="0px" y="0px"
	 viewBox="0 0 107 61" style="enable-background:new 0 0 107 61;" xml:space="preserve">
<style type="text/css">
	.st0{fill:#FFF0F6;stroke:#FF85C0;stroke-miterlimit:10;}
	.st1{font-family:'FZLTXHK--GBK1-0';}
	.st2{font-size:16px;}
	.st3{fill:#FF85C0;}
</style>
<title>task_1</title>
<g id="图层_1-2">
	<path class="st0" d="M8.9,0.5h89.2c4.6,0,8.4,3.8,8.4,8.4v43.2c0,4.6-3.8,8.4-8.4,8.4H8.9c-4.6,0-8.4-3.8-8.4-8.4V8.9
		C0.5,4.3,4.3,0.5,8.9,0.5z"/>
	<text transform="matrix(1.02 0 0 1 21.5996 37.4302)" class="st1 st2">接收节点</text>
	<path class="st3" d="M10.8,8.9H16c0.4,0,0.7,0.3,0.7,0.7c0,0.4-0.3,0.7-0.7,0.7h-5.2c-0.4,0-0.7-0.3-0.7-0.7
		C10.2,9.2,10.5,8.9,10.8,8.9z M10.8,6.3h2.6c0.4,0,0.7,0.3,0.7,0.7s-0.3,0.7-0.7,0.7h-2.6c-0.4,0-0.7-0.3-0.7-0.7
		S10.5,6.3,10.8,6.3z M8.9,12.8c2,0.8,4.5,1.3,5.9,1.3s3.9-0.5,5.9-1.3V5.6C20.6,5.3,20.3,5,20,5H9.5C9.2,5,8.9,5.3,8.9,5.6
		L8.9,12.8L8.9,12.8z M22.3,12.1c0.2-0.2,0.3-0.4,0.3-0.6c0-0.2-0.2-0.6-0.7-0.9v1.6C22.1,12.2,22.2,12.1,22.3,12.1z M5.6,11.5
		c0-0.9,0.7-1.8,2-2.4V5.6c0-1.1,0.9-2,2-2H20c1.1,0,2,0.9,2,2v3.5c1.2,0.7,2,1.5,2,2.4V20c0,1.1-0.9,2-2,2H7.6c-1.1,0-2-0.9-2-2
		V11.5z M7.2,12.1c0.1,0.1,0.2,0.1,0.4,0.2v-1.6c-0.4,0.3-0.7,0.6-0.7,0.9C6.9,11.7,7,11.9,7.2,12.1z"/>
</g>
</svg>
