<?xml version="1.0" encoding="utf-8"?>
<!-- Generator: Adobe Illustrator 21.0.0, SVG Export Plug-In . SVG Version: 6.00 Build 0)  -->
<svg version="1.1" id="图层_1" xmlns="http://www.w3.org/2000/svg" xmlns:xlink="http://www.w3.org/1999/xlink" x="0px" y="0px"
	 viewBox="0 0 107 61" style="enable-background:new 0 0 107 61;" xml:space="preserve">
<style type="text/css">
	.st0{fill:#FFF7E6;stroke:#FFA940;stroke-miterlimit:10;}
	.st1{font-family:'FZLTXHK--GBK1-0';}
	.st2{font-size:16px;}
	.st3{fill:#FFA940;}
</style>
<title>task_1</title>
<g id="图层_1-2">
	<path class="st0" d="M8.9,0.5h89.2c4.6,0,8.4,3.8,8.4,8.4v43.2c0,4.6-3.8,8.4-8.4,8.4H8.9c-4.6,0-8.4-3.8-8.4-8.4V8.9
		C0.5,4.3,4.3,0.5,8.9,0.5z"/>
	<text transform="matrix(1.02 0 0 1 21.5996 37.4302)" class="st1 st2">脚本节点</text>
	<path class="st3" d="M16.4,5.3l5.2,5.2h-4.7c-0.3,0-0.6-0.3-0.6-0.6V5.3z M10.5,17.6c-0.3,0-0.6,0.3-0.6,0.6s0.3,0.6,0.6,0.6h7
		c0.3,0,0.6-0.3,0.6-0.6s-0.3-0.6-0.6-0.6H10.5z M10.5,14.7c-0.3,0-0.6,0.3-0.6,0.6s0.3,0.6,0.6,0.6H14c0.3,0,0.6-0.3,0.6-0.6
		s-0.3-0.6-0.6-0.6H10.5z M21.6,11.7v8.2c0,1-0.8,1.7-1.7,1.7H9.4c-1,0-1.7-0.8-1.7-1.7V7.1c0-1,0.8-1.7,1.7-1.7h5.8v5
		c0,0.8,0.6,1.4,1.4,1.4H21.6z"/>
</g>
</svg>
