<?xml version="1.0" encoding="utf-8"?>
<!-- Generator: Adobe Illustrator 21.0.0, SVG Export Plug-In . SVG Version: 6.00 Build 0)  -->
<svg version="1.1" id="图层_1" xmlns="http://www.w3.org/2000/svg" xmlns:xlink="http://www.w3.org/1999/xlink" x="0px" y="0px"
	 viewBox="0 0 68 68" style="enable-background:new 0 0 68 68;" xml:space="preserve">
<style type="text/css">
	.st0{fill:#FCF1E8;}
	.st1{fill:#F9AA68;}
	.st2{font-family:'FZLTXHK--GBK1-0';}
	.st3{font-size:14px;}
	.st4{fill:#FA8C16;}
</style>
<title>start_1</title>
<g id="图层_2">
	<g id="图层_1-2">
		<path class="st0" d="M34,67.5c-18.5,0-33.5-15-33.5-33.5S15.5,0.5,34,0.5s33.5,15,33.5,33.5C67.5,52.5,52.5,67.5,34,67.5z"/>
		<path class="st1" d="M34,1c18.2,0,33,14.8,33,33S52.2,67,34,67S1,52.2,1,34S15.8,1,34,1 M34,0C15.2,0,0,15.2,0,34s15.2,34,34,34
			s34-15.2,34-34S52.8,0,34,0z"/>
		<text transform="matrix(1 0 0 1 6.97 39.9299)" class="st2 st3">信号启动</text>
	</g>
</g>
<path class="st4" d="M35.4,19.7c-1.2,0-2.2,1-2.2,2.3c0,0,0,0,0,0c0,1.3,1,2.3,2.2,2.3c1.2,0,2.2-1,2.2-2.3c0,0,0,0,0,0
	C37.7,20.7,36.7,19.7,35.4,19.7z M30.7,17.1l1.6,1.6c1.7-1.8,4.5-1.8,6.3,0c0,0,0,0,0,0l1.6-1.6C37.6,14.5,33.4,14.5,30.7,17.1
	C30.7,17.1,30.7,17.1,30.7,17.1z M27.5,13.9l1.6,1.6c3.5-3.5,9.1-3.5,12.6-0.1c0,0,0.1,0.1,0.1,0.1l1.6-1.6
	C39.1,9.6,32,9.5,27.6,13.8C27.6,13.9,27.6,13.9,27.5,13.9z M24.4,10.7l1.6,1.6c5.2-5.3,13.6-5.3,18.9-0.1c0,0,0.1,0.1,0.1,0.1
	l1.6-1.6c-6-6.1-15.9-6.2-22-0.2C24.5,10.6,24.4,10.7,24.4,10.7z"/>
</svg>
