<?xml version="1.0" encoding="utf-8"?>
<!-- Generator: Adobe Illustrator 21.0.0, SVG Export Plug-In . SVG Version: 6.00 Build 0)  -->
<svg version="1.1" id="图层_1" xmlns="http://www.w3.org/2000/svg" xmlns:xlink="http://www.w3.org/1999/xlink" x="0px" y="0px"
	 viewBox="0 0 68 68" style="enable-background:new 0 0 68 68;" xml:space="preserve">
<style type="text/css">
	.st0{fill:#FCF1E8;}
	.st1{fill:#F9AA68;}
	.st2{font-family:'FZLTXHK--GBK1-0';}
	.st3{font-size:14px;}
	.st4{fill:#FA8C16;}
</style>
<title>start_1</title>
<g id="图层_2">
	<g id="图层_1-2">
		<path class="st0" d="M34,67.5c-18.5,0-33.5-15-33.5-33.5S15.5,0.5,34,0.5s33.5,15,33.5,33.5C67.5,52.5,52.5,67.5,34,67.5z"/>
		<path class="st1" d="M34,1c18.2,0,33,14.8,33,33S52.2,67,34,67S1,52.2,1,34S15.8,1,34,1 M34,0C15.2,0,0,15.2,0,34s15.2,34,34,34
			s34-15.2,34-34S52.8,0,34,0z"/>
		<text transform="matrix(1 0 0 1 6.97 39.9299)" class="st2 st3">定时启动</text>
	</g>
</g>
<path class="st4" d="M32.7,4.6c-4.6,0-8.3,3.7-8.3,8.3s3.7,8.3,8.3,8.3s8.3-3.7,8.3-8.3S37.3,4.6,32.7,4.6z M32.7,19.6
	c-3.7,0-6.7-3-6.7-6.7s3-6.7,6.7-6.7c3.7,0,6.7,3,6.7,6.7S36.4,19.6,32.7,19.6z M34.7,16.1l-2.9-2.1c-0.1-0.1-0.2-0.2-0.2-0.3V8.2
	c0-0.2,0.2-0.4,0.4-0.4h1.1c0.2,0,0.4,0.2,0.4,0.4V13l2.2,1.6c0.2,0.1,0.2,0.4,0.1,0.6L35.3,16C35.2,16.2,34.9,16.3,34.7,16.1z"/>
</svg>
