<?xml version="1.0" encoding="utf-8"?>
<!-- Generator: Adobe Illustrator 21.0.0, SVG Export Plug-In . SVG Version: 6.00 Build 0)  -->
<svg version="1.1" id="图层_1" xmlns="http://www.w3.org/2000/svg" xmlns:xlink="http://www.w3.org/1999/xlink" x="0px" y="0px"
	 viewBox="0 0 107 61" style="enable-background:new 0 0 107 61;" xml:space="preserve">
<style type="text/css">
	.st0{fill:#E6F2FC;stroke:#5CAFFB;stroke-miterlimit:10;}
	.st1{font-family:'FZLTXHK--GBK1-0';}
	.st2{font-size:16px;}
	.st3{fill:#1890FF;}
</style>
<title>task_1</title>
<g id="图层_2">
	<g id="图层_1-2">
		<path class="st0" d="M8.9,0.5h89.2c4.6,0,8.4,3.8,8.4,8.4v43.2c0,4.6-3.8,8.4-8.4,8.4H8.9c-4.6,0-8.4-3.8-8.4-8.4V8.9
			C0.5,4.3,4.3,0.5,8.9,0.5z"/>
		<text transform="matrix(1.02 0 0 1 21.5996 37.4302)" class="st1 st2">审批节点</text>
	</g>
</g>
<path class="st3" d="M9.3,8.9c0-2,0.2-3.5,2.1-4.5c0.4-0.2,1.3-0.3,1.7-0.3c0.5,0,0-0.4,1.1-0.4s2.5,0.5,3.2,1.9
	c0.7,1.4,0.8,3,0.8,3.4c0,0.4,0.4,0.2,0.4,0.8s-0.2,1.7-0.8,2.4c-0.6,0.8-0.8,0.9-1.2,1.5c-0.4,0.6-0.6,1.2-0.6,1.7
	c0,1.9,3.2,2,5.1,3.2c0.7,0.5,1.2,1.1,1.5,1.8c0.3,0.7-0.1,1.4-0.7,1.6c-0.1,0.1-0.3,0.1-0.5,0.1L6,22.1c-0.7,0-1.3-0.6-1.3-1.3
	c0-0.2,0-0.3,0.1-0.5c0.3-0.7,0.8-1.3,1.5-1.8c1.9-1.2,5.1-1.3,5.1-3.2c0-0.5-0.2-1.1-0.6-1.7c-0.4-0.6-0.6-0.8-1.2-1.5
	c-0.6-0.8-0.8-1.9-0.8-2.4S9.3,9.3,9.3,8.9z"/>
</svg>
